<?xml version="1.0" encoding="UTF-8"?>
<!DOCTYPE svg PUBLIC "-//W3C//DTD SVG 1.1//EN" "http://www.w3.org/Graphics/SVG/1.1/DTD/svg11.dtd">
<!-- Creator: CorelDRAW 2020 (64-Bit) -->
<svg xmlns="http://www.w3.org/2000/svg" xml:space="preserve" width="927px" height="500px" version="1.1" style="shape-rendering:geometricPrecision; text-rendering:geometricPrecision; image-rendering:optimizeQuality; fill-rule:evenodd; clip-rule:evenodd"
viewBox="0 0 92700 50002"
 xmlns:xlink="http://www.w3.org/1999/xlink"
 xmlns:xodm="http://www.corel.com/coreldraw/odm/2003">
 <defs>
  <style type="text/css">
   <![CDATA[
    .fil2 {fill:#FEFEFE}
    .fil0 {fill:#FEFEFE;fill-rule:nonzero}
    .fil1 {fill:url(#id0)}
    .fil3 {fill:url(#id1)}
   ]]>
  </style>
  <linearGradient id="id0" gradientUnits="userSpaceOnUse" x1="46766" y1="2197" x2="46767" y2="32386">
   <stop offset="0" style="stop-opacity:1; stop-color:#1F4C79"/>
   <stop offset="0.709804" style="stop-opacity:1; stop-color:#205D8E"/>
   <stop offset="1" style="stop-opacity:1; stop-color:#226FA4"/>
  </linearGradient>
  <linearGradient id="id1" gradientUnits="userSpaceOnUse" xlink:href="#id0" x1="46766" y1="33829" x2="46766" y2="46531">
  </linearGradient>
 </defs>
 <g id="Camada_x0020_1">
  <metadata id="CorelCorpID_0Corel-Layer"/>
  <g id="_2449749143152">
   <path class="fil0" d="M46766 225c4713,0 8980,1910 12068,4999 3088,3088 4999,7355 4999,12067 0,4713 -1911,8979 -4999,12068 -3088,3088 -7355,4998 -12068,4998 -4712,0 -8979,-1910 -12067,-4998 -3088,-3089 -4999,-7355 -4999,-12068 0,-4712 1911,-8979 4999,-12067 3088,-3089 7355,-4999 12067,-4999z"/>
   <path class="fil1" d="M46766 2197c8337,0 15095,6758 15095,15094 0,8337 -6758,15095 -15095,15095 -8336,0 -15094,-6758 -15094,-15095 0,-8336 6758,-15094 15094,-15094z"/>
   <path class="fil2" d="M55987 18592l-2199 5094c-2971,449 -5736,1009 -9276,-980l-9379 -15026 2813 755c-3,106 -4,211 -4,318 0,6482 5322,11768 11848,11768 1554,0 3039,-300 4400,-844 802,-282 1083,-647 1797,-1085zm-5954 -9881c2450,0 4436,1986 4436,4435 0,2450 -1986,4436 -4436,4436 -2449,0 -4435,-1986 -4435,-4436 0,-2449 1986,-4435 4435,-4435zm2646 17546l-2433 5636 -3880 -6216c2372,1014 4177,853 6313,580z"/>
   <path class="fil0" d="M2539 32414l3700 0c434,0 828,175 1114,458 287,-283 680,-458 1114,-458l3700 0c343,0 661,109 920,294 260,-185 577,-294 920,-294l4150 0 0 1c576,0 1122,316 1399,842 267,-501 794,-843 1402,-843l3597 0c357,0 686,118 951,316 265,-198 594,-316 951,-316l3700 0c138,0 271,17 398,50 128,-33 261,-50 399,-50l3904 0 0 0c423,0 815,168 1104,448 285,-277 675,-448 1104,-448l3823 0 0 2c109,0 218,12 328,35 22,5 43,10 65,15 129,-34 264,-52 404,-52l3701 0c838,0 1525,651 1581,1476 124,-121 257,-236 397,-345 581,-456 1281,-791 2096,-1005 750,-198 1594,-296 2528,-296 935,0 1778,98 2528,294 828,216 1529,550 2103,1002 405,318 744,692 1017,1121 276,-422 620,-794 1033,-1116 581,-456 1280,-791 2096,-1005 750,-198 1594,-296 2528,-296 935,0 1777,98 2528,294 828,216 1529,550 2103,1002 351,276 652,593 904,952l25 -34c12,-18 25,-36 39,-54 289,-382 638,-714 1044,-997 381,-264 816,-487 1303,-667 461,-169 960,-295 1498,-377 488,-74 1040,-112 1657,-113l0 -6c867,0 1647,80 2341,240 765,177 1422,456 1971,835 612,422 1073,956 1385,1601 298,617 447,1308 447,2070l0 606 936 -3843c119,-759 775,-1339 1567,-1339l4967 0 0 6c715,0 1364,488 1536,1214l2949 12263c55,162 85,335 85,515 0,876 -709,1585 -1585,1585l-3945 0 0 -4c-763,1 -1435,-551 -1561,-1327l-85 -515 -66 404c-73,808 -752,1442 -1580,1442l-3741 0 0 -5c-122,0 -247,-14 -371,-44 -483,-117 -859,-443 -1057,-859 -353,225 -741,415 -1161,569l-1 -2 -5 2c-479,175 -992,304 -1539,387 -504,76 -1075,115 -1712,117 -926,-2 -1743,-92 -2451,-271 -766,-193 -1431,-492 -1993,-896 -18,-12 -37,-25 -55,-38 -362,-266 -672,-570 -931,-912 -231,308 -501,584 -809,828 -578,459 -1279,797 -2103,1014 -749,198 -1594,296 -2534,296l0 -6c-952,-1 -1795,-99 -2528,-294 -824,-218 -1525,-554 -2103,-1009 -408,-321 -750,-695 -1025,-1121 -271,427 -609,801 -1011,1120 -355,283 -753,520 -1195,710 -236,102 -487,191 -751,267l-709 1162c-263,511 -796,861 -1410,861l-2965 0 0 -9c-421,0 -841,-167 -1152,-499 -501,-536 -556,-1329 -181,-1922 -328,-163 -630,-352 -906,-569 -137,-108 -268,-223 -390,-343 -61,820 -746,1466 -1581,1466l-3701 0c-875,0 -1585,-709 -1585,-1585l0 -1171 -302 1408c-114,763 -772,1348 -1567,1348l-4682 0 0 -3c-734,0 -1393,-513 -1548,-1260l-260 -1240 0 918c0,876 -709,1585 -1585,1585l-3700 0c-357,0 -686,-117 -951,-316 -265,199 -594,316 -951,316l-4006 0 0 -6c-628,0 -1222,-377 -1468,-997l0 -1c-232,588 -806,1004 -1476,1004l-3598 0c-867,0 -1572,-696 -1585,-1560 -148,154 -307,300 -479,436l-3 -4c-579,463 -1275,802 -2086,1018 -742,198 -1579,296 -2511,296l0 -6c-948,-1 -1783,-99 -2504,-294 -757,-203 -1415,-517 -1974,-940 -38,-25 -75,-52 -111,-81 -614,-493 -1072,-1101 -1375,-1822 -284,-676 -426,-1438 -426,-2285l0 -8756c0,-875 710,-1585 1586,-1585z"/>
   <path class="fil3" d="M6239 33999l-3700 0 0 8756c0,1270 402,2229 1206,2874 804,643 2003,966 3598,969 1605,0 2811,-320 3615,-964 807,-640 1209,-1601 1209,-2879l0 -8756 -3700 0 0 9221c4,387 -85,674 -262,865 -180,188 -467,281 -862,281 -402,0 -688,-93 -859,-281 -170,-191 -252,-478 -245,-865l0 -9221zm7768 12413l3598 0 0 -4029c0,-674 -27,-1421 -78,-2242 -55,-819 -136,-1710 -249,-2670 153,612 324,1216 511,1815 187,602 399,1199 634,1795l2126 5331 4006 0 0 -12413 -3597 0 0 4603c-4,496 10,1077 47,1746 41,671 133,1431 280,2283 -164,-558 -344,-1139 -542,-1741 -198,-599 -419,-1219 -664,-1854l-1922 -5037 -4150 0 0 12413zm12450 0l3700 0 0 -12413 -3700 0 0 12413zm7093 0l4682 0 2657 -12413 -3823 0 -695 5083c-61,457 -139,1038 -235,1741 -92,705 -191,1529 -296,2474 -92,-1201 -167,-2154 -228,-2856 -59,-700 -99,-1150 -120,-1343l-634 -5099 -3904 0 2596 12413zm8136 0l3701 0 0 -12413 -3701 0 0 12413zm9711 191l-1800 1684 2965 0 1101 -1804 13 -22c19,-3 62,-12 81,-15 773,-154 1401,-425 1885,-812 807,-640 1213,-1601 1213,-2879l0 -1240 -3741 0 0 1705c3,387 -82,674 -256,865 -174,188 -463,281 -869,281 -415,0 -708,-93 -886,-281 -177,-191 -262,-478 -258,-865l0 -6013c-4,-387 81,-679 255,-873 174,-194 464,-289 869,-289 416,0 709,95 886,289 177,194 262,486 259,873l0 1410 3741 0 0 -961c0,-1278 -406,-2236 -1213,-2871 -811,-638 -2027,-956 -3653,-956 -1615,0 -2834,320 -3652,961 -821,640 -1230,1596 -1233,2866l0 5099c3,1270 412,2229 1233,2874 703,553 1702,870 2995,949 74,4 83,3 81,6 -2,2 -6,10 -16,19zm7011 -8947l0 5099c4,1270 413,2229 1234,2874 818,643 2037,966 3652,969 1625,0 2842,-320 3653,-964 807,-640 1213,-1601 1213,-2879l0 -5099c0,-1278 -406,-2236 -1213,-2871 -811,-638 -2028,-956 -3653,-956 -1615,0 -2834,320 -3652,961 -821,640 -1230,1596 -1234,2866zm3741 -449c-3,-387 82,-679 256,-873 174,-194 463,-289 869,-289 415,0 709,95 886,289 177,194 262,486 258,873l0 6013c4,387 -81,674 -255,865 -174,188 -463,281 -869,281 -415,0 -708,-93 -886,-281 -177,-191 -262,-478 -259,-865l0 -6013zm7237 4912l0 930c4,1157 409,2035 1220,2632 808,599 1997,899 3564,901 1066,-2 1969,-139 2712,-410 739,-272 1305,-661 1690,-1168 388,-503 583,-1110 586,-1815 0,-364 -51,-705 -147,-1018 -99,-315 -241,-602 -426,-857 -149,-210 -361,-424 -633,-641 -270,-217 -590,-444 -961,-687 -375,-243 -787,-509 -1247,-795 -538,-334 -998,-625 -1377,-881 -374,-253 -661,-493 -858,-715 -198,-220 -300,-450 -300,-682 3,-276 102,-496 296,-661 195,-166 457,-251 787,-254 406,-2 702,93 890,285 187,191 279,483 276,878l0 852 3495 0 0 -1023c0,-1053 -381,-1844 -1144,-2371 -763,-527 -1902,-790 -3414,-790 -1026,3 -1895,134 -2610,398 -712,263 -1257,640 -1629,1131 -375,491 -562,1082 -566,1772 0,514 110,989 324,1428 215,436 535,824 965,1160 453,343 964,684 1529,1022 562,336 1165,693 1803,1070 419,255 736,511 947,769 215,256 320,517 320,780 -3,307 -116,550 -337,731 -218,181 -515,271 -889,276 -409,0 -713,-100 -910,-304 -198,-207 -297,-517 -297,-935l0 -1008 -3659 0zm15169 -186l633 -3780c123,-760 225,-1473 307,-2139 41,356 82,713 126,1067 41,356 89,707 140,1056l572 3796 -1778 0zm-4539 4479l3741 0 368 -2231 2555 0 369 2231 3945 0 -2985 -12413 -4967 0 -3026 12413z"/>
  </g>
 </g>
</svg>
